<svg id="AW" xmlns="http://www.w3.org/2000/svg" viewBox="0 0 468.57 176.93"><title>RoyalAstronomicalSociety_SecondaryLogo_Black</title><path d="M258.29,171.71a12.34,12.34,0,0,1-1.84,6.86h9.16a12.23,12.23,0,0,1-1.84-7.06V161.42l11.47,17.15h8.29a25.77,25.77,0,0,1-5.84-6.14l-7.52-10.85c5.22-.82,8.19-4,8.19-8.75a7.62,7.62,0,0,0-3.28-6.45c-2.1-1.28-4.2-1.33-6.55-1.33H256.44a12.79,12.79,0,0,1,1.84,7.37v19.3ZM263.76,147h2.51c4.15,0,6.19,2.2,6.19,6.76,0,4.4-2.15,6.71-6.19,6.71h-2.51Z" transform="translate(-49.18 -123.63)"/><path d="M293.94,179.39c7,0,11.88-5.17,11.88-12.54s-4.71-12.29-11.57-12.29c-7.17,0-12,5.07-12,12.44S286.93,179.39,293.94,179.39Zm-.15-22.93c3.84,0,6.19,3.89,6.19,11,0,6.5-2.2,10-5.94,10-3.43,0-5.94-3.94-5.94-11C288.11,160,290.46,156.46,293.79,156.46Z" transform="translate(-49.18 -123.63)"/><path d="M316.61,179.19c-1.74,4.86-3.28,7.22-4.91,7.22a3.15,3.15,0,0,1-1.84-.82L306.68,183v5.68a22.27,22.27,0,0,0,3.28.41c4.45,0,6.5-2.35,8.7-8.19l7.52-20a17,17,0,0,1,3.74-6H322.5a6.67,6.67,0,0,1,1.33,3,6.6,6.6,0,0,1-.36,1.84l-4.2,13.62-5.07-13.82a4.75,4.75,0,0,1-.41-1.64c0-.72.56-1.64,1.54-3H305.24a13.89,13.89,0,0,1,3.53,5.48Z" transform="translate(-49.18 -123.63)"/><path d="M257.48,221.33A7.85,7.85,0,0,1,258,219l2.76-8.09h9.88l2.56,7.93a9.6,9.6,0,0,1,.56,2.35c0,.77-.56,1.69-1.59,3h10.24a15.58,15.58,0,0,1-4-6.65l-9.37-27.49-3.84,1.23-10,25.7c-1,2.61-2,5.07-4.2,7.22H259A4.57,4.57,0,0,1,257.48,221.33ZM265.93,196l4,12.59h-8.29Z" transform="translate(-49.18 -123.63)"/><path d="M291.6,222.76c-1.79,0-4-1.95-7.83-5v5.84a25,25,0,0,0,7.32,1.28c5.53,0,9-3.12,9-7.63,0-2.82-1.54-4.61-4.71-6.35l-3.48-1.84c-2-1.13-3.12-2.15-3.12-3.84a3,3,0,0,1,3.12-2.92c1.54,0,3.63,1.74,7.22,4.4v-5.63a26,26,0,0,0-6.4-.92c-5.32,0-8.65,2.87-8.65,7.12,0,2.46,1.59,4.61,4.76,6.4l3.07,1.74c2,1.18,3.17,2,3.17,3.89A3.4,3.4,0,0,1,291.6,222.76Z" transform="translate(-49.18 -123.63)"/><path d="M310.53,224.71a12.53,12.53,0,0,0,8.24-3.43,28.76,28.76,0,0,1-3.53.26c-4.56,0-5.32-1.28-5.32-5.07V202.85h7.78v-2.35h-7.78v-6.81a50,50,0,0,1-9.21,9.16h4v14.69C304.74,222.4,305.87,224.71,310.53,224.71Z" transform="translate(-49.18 -123.63)"/><path d="M335.81,200.65a6.41,6.41,0,0,0-2.35-.46c-1.69,0-3.69,1.28-6.35,3.63V200l-7.17,1.69a11.51,11.51,0,0,1,1.95,6.35v8.8A13,13,0,0,1,320,224.2H329a12.58,12.58,0,0,1-1.84-7.06v-12.8a24.82,24.82,0,0,1,2.76-.15,9,9,0,0,1,5.94,2.3Z" transform="translate(-49.18 -123.63)"/><path d="M348.41,225c7,0,11.88-5.17,11.88-12.54s-4.71-12.29-11.57-12.29c-7.17,0-12,5.07-12,12.44S341.39,225,348.41,225Zm-.15-22.93c3.84,0,6.19,3.89,6.19,11,0,6.5-2.2,10-5.94,10-3.43,0-5.94-3.94-5.94-11C342.57,205.61,344.93,202.08,348.25,202.08Z" transform="translate(-49.18 -123.63)"/><path d="M364.31,216.82a13,13,0,0,1-1.84,7.37h9a12.84,12.84,0,0,1-1.89-7.37V203.67a18,18,0,0,1,2.87-.2c5.17,0,6.4,2,6.4,7.22v6.65A12.34,12.34,0,0,1,377,224.2h9a12.6,12.6,0,0,1-1.89-7.37v-8c0-5.78-1.95-8.65-5.89-8.65-2,0-4.81,1-8.6,2.92V200l-7.17,1.69a11.51,11.51,0,0,1,1.95,6.35Z" transform="translate(-49.18 -123.63)"/><path d="M400,200.19c-7.17,0-12,5.07-12,12.44S392.72,225,399.73,225s11.88-5.17,11.88-12.54S406.9,200.19,400,200.19Zm-.21,22.88c-3.43,0-5.94-3.94-5.94-11,0-6.45,2.35-10,5.68-10,3.84,0,6.19,3.89,6.19,11C405.77,219.59,403.57,223.07,399.84,223.07Z" transform="translate(-49.18 -123.63)"/><path d="M449.14,216.82v-8c0-5.78-1.84-8.65-5.84-8.65-2.82,0-5.53,1.23-9,3a5.54,5.54,0,0,0-5.07-3c-2,0-4.61,1.07-8.14,2.92V200l-7.17,1.69a11.58,11.58,0,0,1,2,6.35v8.8A13.07,13.07,0,0,1,414,224.2h9a12.84,12.84,0,0,1-1.89-7.37V203.67a18.78,18.78,0,0,1,2.66-.2c4.91,0,6.14,2,6.14,7.22v6.14a13,13,0,0,1-1.84,7.37h9a12.6,12.6,0,0,1-1.89-7.37v-8c0-2.51-.15-4.2-.61-5.12a25,25,0,0,1,3.28-.2c4.91,0,6.14,2,6.14,7.17v6.4A12.62,12.62,0,0,1,442,224.2h9a12.58,12.58,0,0,1-1.84-7.06Z" transform="translate(-49.18 -123.63)"/><path d="M457.69,194.71c2.15,0,3.28-.92,3.28-2.82,0-1.74-1.18-2.87-3.22-2.87s-3.17,1.07-3.17,2.82S455.64,194.71,457.69,194.71Z" transform="translate(-49.18 -123.63)"/><path d="M460.45,200l-7.17,1.69a11.51,11.51,0,0,1,1.95,6.35v8.8a13,13,0,0,1-1.84,7.37h9a12.84,12.84,0,0,1-1.89-7.37Z" transform="translate(-49.18 -123.63)"/><path d="M470.4,212c0-5.84,2.71-9.62,5.68-9.62a3.8,3.8,0,0,1,2.3.92l5.22,3.89v-6.09a20.91,20.91,0,0,0-6.09-.92c-7.47,0-12.59,5.27-12.59,13.1,0,7,4.51,11.57,10.8,11.57a13.16,13.16,0,0,0,9.27-3.69,22.91,22.91,0,0,1-5.27.46C473.62,221.58,470.4,218.26,470.4,212Z" transform="translate(-49.18 -123.63)"/><path d="M504.62,207.35v-.56c0-1.95-.05-3.33-1-4.51-1.23-1.48-3.22-2.1-6.14-2.1a33.68,33.68,0,0,0-9.11,1.43v5.89c3.58-3.28,5.78-5.17,7.47-5.17,2.51,0,3.74,1.54,3.74,4.61v4.25c-1-.05-1.84-.1-2.71-.1-7.22,0-10.65,2-10.65,6.86a6.58,6.58,0,0,0,6.35,6.76c1.69,0,3.94-1.07,7-3a8,8,0,0,0,1.13,3l5.89-1.38c-1.89-2.51-2-4.61-2-7Zm-5,13.87a20.56,20.56,0,0,1-2.71.2c-3.53,0-5.37-1.48-5.37-4.25,0-3,2.56-4.2,8.09-4.61Z" transform="translate(-49.18 -123.63)"/><path d="M508.79,224.2h9a12.6,12.6,0,0,1-1.89-7.37V188l-7.37,1.69a10.62,10.62,0,0,1,2.2,6.35v20.83A12.92,12.92,0,0,1,508.79,224.2Z" transform="translate(-49.18 -123.63)"/><path d="M270.94,252.31l-5-3.12c-2.92-1.89-4.66-3.23-4.66-6,0-3,2.41-5.22,5.73-5.22a4.51,4.51,0,0,1,2.87,1.13l5.17,4.1v-6.45a32.08,32.08,0,0,0-7.78-1c-6.55,0-10.75,3.74-10.75,9.06,0,3.79,1.69,6.09,5.32,8.55l5.48,3.69c2.46,1.69,3.84,3.07,3.84,5.58,0,3.17-2.41,5.32-6.6,5.32a4,4,0,0,1-2.87-1.18L256.09,262v6.86a27.19,27.19,0,0,0,8.55,1.54c7.52,0,11.67-3.79,11.67-9.73C276.31,256.71,274.57,254.61,270.94,252.31Z" transform="translate(-49.18 -123.63)"/><path d="M291.42,245.81c-7.17,0-12,5.07-12,12.44s4.66,12.39,11.67,12.39S303,265.47,303,258.09,298.27,245.81,291.42,245.81Zm-.2,22.88c-3.43,0-5.94-3.94-5.94-11,0-6.45,2.36-10,5.68-10,3.84,0,6.19,3.89,6.19,11C297.15,265.21,294.95,268.69,291.21,268.69Z" transform="translate(-49.18 -123.63)"/><path d="M310.93,257.5c0-5.84,2.71-9.62,5.68-9.62a3.8,3.8,0,0,1,2.3.92l5.22,3.89v-6.09a20.91,20.91,0,0,0-6.09-.92c-7.47,0-12.59,5.27-12.59,13.1,0,7,4.5,11.57,10.8,11.57a13.16,13.16,0,0,0,9.27-3.69,22.91,22.91,0,0,1-5.27.46C314.16,267.12,310.93,263.79,310.93,257.5Z" transform="translate(-49.18 -123.63)"/><path d="M334.84,245.6l-7.17,1.69a11.51,11.51,0,0,1,1.95,6.35v8.8a13,13,0,0,1-1.84,7.37h9a12.84,12.84,0,0,1-1.89-7.37Z" transform="translate(-49.18 -123.63)"/><path d="M329,237.46c0,1.84,1.07,2.87,3.12,2.87s3.28-.92,3.28-2.82c0-1.74-1.18-2.87-3.23-2.87S329,235.72,329,237.46Z" transform="translate(-49.18 -123.63)"/><path d="M344.74,257.22v-.31h15.41c-.15-7.22-3.58-11.11-9.47-11.11a10.93,10.93,0,0,0-8.14,3.69,13.16,13.16,0,0,0-3.22,9c0,7.32,4.61,12,11,12a14,14,0,0,0,10-3.84,27.22,27.22,0,0,1-5.27.56C348.06,267.15,344.74,263.93,344.74,257.22Zm5.17-9.47c2.82,0,4.35,2.3,4.35,6.76l-9.47,1.23C344.94,250.52,346.89,247.75,349.91,247.75Z" transform="translate(-49.18 -123.63)"/><path d="M393.85,249.08a6.59,6.59,0,0,1-.36,1.84l-4.2,13.62-5.07-13.82a4.74,4.74,0,0,1-.41-1.64c0-.72.56-1.64,1.54-3H369.51v-6.81a50,50,0,0,1-9.21,9.16h4v14.69c0,4.86,1.13,7.17,5.78,7.17a12.53,12.53,0,0,0,8.24-3.43,28.78,28.78,0,0,1-3.53.26c-4.56,0-5.32-1.28-5.32-5.07V248.47h7.73a15.81,15.81,0,0,1,1.56,3.12l7.83,18.84c-1.74,4.86-3.28,7.22-4.91,7.22a3.16,3.16,0,0,1-1.84-.82l-3.17-2.56V280a22.25,22.25,0,0,0,3.28.41c4.45,0,6.5-2.35,8.7-8.19l7.52-20a17,17,0,0,1,3.74-6h-7.42A6.67,6.67,0,0,1,393.85,249.08Z" transform="translate(-49.18 -123.63)"/><path d="M339.91,165.47c-7.22,0-10.65,2-10.65,6.86a6.58,6.58,0,0,0,6.35,6.76c1.69,0,3.94-1.07,7-3a8,8,0,0,0,1.13,3l5.89-1.38c-1.89-2.51-2-4.61-2-7v-9.52c0-1.95-.05-3.33-1-4.51-1.23-1.48-3.22-2.1-6.14-2.1a33.68,33.68,0,0,0-9.11,1.43v5.89c3.58-3.28,5.78-5.17,7.47-5.17,2.51,0,3.74,1.54,3.74,4.61v4.25C341.66,165.52,340.79,165.47,339.91,165.47Zm2.71,10.14a20.56,20.56,0,0,1-2.71.2c-3.53,0-5.37-1.48-5.37-4.25,0-3,2.56-4.2,8.09-4.61Z" transform="translate(-49.18 -123.63)"/><path d="M353.71,171.2a12.92,12.92,0,0,1-1.9,7.37h9a12.6,12.6,0,0,1-1.89-7.37V142.33L351.51,144a10.62,10.62,0,0,1,2.2,6.35Z" transform="translate(-49.18 -123.63)"/><polygon points="107.7 40.25 108.61 40.65 101.3 57.46 102.51 57.98 109.82 41.17 110.73 41.57 118.04 24.76 118.77 25.07 126.06 8.3 121.58 6.35 114.28 23.13 115.01 23.44 107.7 40.25"/><polygon points="70.08 137.06 77.37 120.29 72.88 118.34 65.59 135.11 66.32 135.43 59.01 152.24 59.92 152.63 52.61 169.44 53.82 169.97 61.13 153.16 62.04 153.56 69.35 136.75 70.08 137.06"/><polygon points="100.88 38.09 96.28 55.84 97.56 56.17 102.15 38.42 103.11 38.67 107.7 20.93 108.47 21.12 113.05 3.42 108.32 2.19 103.74 19.9 104.51 20.1 99.92 37.84 100.88 38.09"/><polygon points="77.74 120.42 73.16 138.12 73.93 138.32 69.34 156.07 70.3 156.32 65.71 174.07 66.99 174.4 71.58 156.65 72.54 156.9 77.13 139.15 77.9 139.35 82.47 121.64 77.74 120.42"/><polygon points="92.39 55.15 94.15 36.91 95.14 37 96.89 18.75 97.68 18.83 99.44 0.63 94.57 0.16 92.82 18.36 93.61 18.44 91.85 36.69 92.83 36.78 91.08 55.03 92.39 55.15"/><polygon points="81.11 139.92 81.9 139.99 80.14 158.24 81.13 158.33 79.37 176.58 80.69 176.71 82.45 158.46 83.43 158.56 85.19 140.31 85.98 140.38 87.73 122.18 82.86 121.71 81.11 139.92"/><polygon points="82.58 18.5 83.7 36.8 84.69 36.74 85.81 55.04 87.13 54.96 86.01 36.66 87 36.6 85.88 18.3 86.67 18.26 85.55 0 80.67 0.3 81.79 18.55 82.58 18.5"/><polygon points="94.45 158.49 93.33 140.19 94.12 140.14 93.01 121.89 88.13 122.19 89.24 140.44 90.03 140.39 91.15 158.69 92.14 158.63 93.26 176.93 94.58 176.85 93.46 158.55 94.45 158.49"/><polygon points="71.7 20.3 75.67 38.19 76.64 37.98 80.6 55.88 81.89 55.59 77.93 37.69 78.89 37.48 74.92 19.58 75.7 19.41 71.74 1.55 66.97 2.61 70.93 20.47 71.7 20.3"/><polygon points="105.32 156.7 101.36 138.8 102.13 138.63 98.17 120.77 93.4 121.83 97.36 139.69 98.13 139.52 102.1 157.41 103.07 157.2 107.03 175.09 108.32 174.81 104.36 156.91 105.32 156.7"/><polygon points="61.24 23.77 67.95 40.82 68.88 40.46 75.59 57.51 76.82 57.03 70.11 39.98 71.03 39.61 64.31 22.56 65.05 22.27 58.34 5.25 53.8 7.04 60.5 24.06 61.24 23.77"/><polygon points="115.78 153.23 109.06 136.17 109.8 135.88 103.1 118.87 98.55 120.66 105.25 137.68 105.99 137.38 112.71 154.44 113.63 154.08 120.35 171.13 121.58 170.65 114.86 153.59 115.78 153.23"/><polygon points="51.44 28.83 60.75 44.63 61.6 44.12 70.9 59.92 72.04 59.25 62.74 43.45 63.59 42.95 54.29 27.16 54.97 26.75 45.69 10.99 41.48 13.47 50.76 29.23 51.44 28.83"/><polygon points="125.57 148.17 116.27 132.37 116.95 131.97 107.67 116.21 103.45 118.69 112.74 134.45 113.42 134.05 122.72 149.84 123.58 149.34 132.88 165.14 134.02 164.47 124.72 148.67 125.57 148.17"/><polygon points="42.56 35.37 54.22 49.51 54.99 48.88 66.65 63.02 67.67 62.19 56.01 48.04 56.77 47.41 45.11 33.27 45.72 32.76 34.09 18.65 30.32 21.76 41.95 35.87 42.56 35.37"/><polygon points="134.44 141.64 122.78 127.49 123.4 126.99 111.76 112.88 107.99 115.98 119.63 130.1 120.24 129.59 131.9 143.74 132.66 143.11 144.32 157.25 145.34 156.41 133.68 142.27 134.44 141.64"/><polygon points="142.19 133.8 128.46 121.65 128.99 121.06 115.29 108.94 112.05 112.6 125.75 124.72 126.27 124.13 140 136.27 140.66 135.53 154.39 147.68 155.26 146.69 141.53 134.54 142.19 133.8"/><polygon points="148.61 124.84 133.15 115 133.58 114.33 118.15 104.5 115.53 108.62 130.95 118.45 131.38 117.78 146.84 127.63 147.37 126.79 162.83 136.64 163.54 135.53 148.08 125.68 148.61 124.84"/><polygon points="153.56 115 136.74 107.69 137.06 106.96 120.29 99.67 118.34 104.15 135.11 111.44 135.43 110.72 152.24 118.03 152.63 117.12 169.44 124.43 169.97 123.21 153.16 115.91 153.56 115"/><polygon points="156.9 104.5 139.15 99.91 139.35 99.14 121.64 94.56 120.42 99.29 138.12 103.87 138.32 103.1 156.07 107.69 156.32 106.73 174.06 111.32 174.4 110.05 156.65 105.45 156.9 104.5"/><polygon points="18.44 83.43 36.69 85.19 36.78 84.2 55.03 85.96 55.15 84.64 36.91 82.88 37 81.9 18.75 80.14 18.83 79.35 0.63 77.6 0.16 82.47 18.36 84.22 18.44 83.43"/><polygon points="158.55 93.6 140.31 91.84 140.38 91.06 122.18 89.3 121.71 94.17 139.91 95.92 139.99 95.13 158.24 96.89 158.33 95.9 176.58 97.66 176.71 96.35 158.46 94.59 158.55 93.6"/><polygon points="18.5 94.45 36.8 93.33 36.74 92.35 55.04 91.23 54.96 89.91 36.66 91.03 36.6 90.04 18.3 91.16 18.25 90.37 0 91.48 0.3 96.36 18.55 95.25 18.5 94.45"/><polygon points="158.55 83.57 158.49 82.58 140.19 83.7 140.14 82.91 121.89 84.03 122.19 88.91 140.44 87.79 140.39 87 158.69 85.88 158.63 84.89 176.93 83.77 176.84 82.45 158.55 83.57"/><polygon points="20.3 105.33 38.19 101.36 37.98 100.4 55.87 96.43 55.59 95.14 37.69 99.11 37.48 98.14 19.58 102.11 19.41 101.33 1.55 105.29 2.61 110.07 20.47 106.11 20.3 105.33"/><polygon points="156.7 71.71 138.8 75.68 138.63 74.9 120.77 78.86 121.83 83.64 139.69 79.68 139.52 78.9 157.41 74.94 157.2 73.97 175.09 70 174.81 68.71 156.91 72.68 156.7 71.71"/><polygon points="23.77 115.8 40.82 109.08 40.46 108.16 57.51 101.44 57.03 100.21 39.97 106.93 39.61 106.01 22.56 112.72 22.27 111.99 5.25 118.69 7.04 123.24 24.06 116.54 23.77 115.8"/><polygon points="153.23 61.25 136.17 67.97 135.88 67.23 118.86 73.94 120.66 78.48 137.67 71.78 137.38 71.04 154.44 64.33 154.08 63.4 171.13 56.69 170.65 55.45 153.59 62.17 153.23 61.25"/><polygon points="28.83 125.59 44.63 116.29 44.12 115.43 59.92 106.13 59.25 104.99 43.45 114.3 42.95 113.44 27.16 122.75 26.75 122.06 10.99 131.34 13.47 135.56 29.23 126.28 28.83 125.59"/><polygon points="148.17 51.46 132.37 60.77 131.97 60.09 116.21 69.37 118.69 73.58 134.45 64.3 134.05 63.61 149.84 54.31 149.34 53.46 165.13 44.15 164.46 43.01 148.67 52.32 148.17 51.46"/><polygon points="35.37 134.47 49.51 122.81 48.88 122.05 63.02 110.39 62.19 109.37 48.04 121.03 47.41 120.26 33.27 131.92 32.76 131.31 18.65 142.94 21.76 146.72 35.87 135.08 35.37 134.47"/><polygon points="141.64 42.59 127.49 54.25 126.99 53.64 112.88 65.27 115.98 69.04 130.1 57.41 129.59 56.8 143.74 45.14 143.11 44.37 157.25 32.71 156.41 31.69 142.27 43.35 141.64 42.59"/><polygon points="43.21 142.22 55.35 128.49 54.61 127.84 66.76 114.11 65.77 113.23 53.62 126.96 52.88 126.3 40.73 140.03 40.14 139.51 28.02 153.21 31.68 156.44 43.8 142.75 43.21 142.22"/><polygon points="133.8 34.84 121.65 48.57 121.06 48.05 108.94 61.75 112.6 64.99 124.72 51.29 124.12 50.76 136.27 37.03 135.53 36.38 147.68 22.65 146.69 21.77 134.54 35.5 133.8 34.84"/><polygon points="52.17 148.65 62.02 133.19 61.18 132.66 71.03 117.19 69.92 116.48 60.07 131.94 59.23 131.41 49.38 146.87 48.71 146.45 38.89 161.87 43.01 164.5 52.84 149.07 52.17 148.65"/><polygon points="124.84 28.42 115 43.88 114.33 43.46 104.5 58.88 108.62 61.51 118.45 46.08 117.78 45.66 127.63 30.2 126.79 29.66 136.64 14.2 135.53 13.49 125.68 28.95 124.84 28.42"/><path d="M93.33,175.1,97.72,179l.66-.74,13.73,12.15.88-1L99.25,177.25l.66-.74L86.18,164.36l.53-.59L73,151.65l-3.24,3.66,13.87,12.28A14.52,14.52,0,0,1,93.33,175.1Z" transform="translate(-49.18 -123.63)"/><path d="M74.06,168.71l-9.72-6.19-2.63,4.12,8.14,5.19A14.53,14.53,0,0,1,74.06,168.71Z" transform="translate(-49.18 -123.63)"/><path d="M109.73,193.54l-15-9.54q-.11.7-.29,1.38L109,194.66Z" transform="translate(-49.18 -123.63)"/><path d="M90.36,192.28l16.27,7.07.53-1.21-15.82-6.88Q90.88,191.8,90.36,192.28Z" transform="translate(-49.18 -123.63)"/><path d="M65.92,181.73a14.51,14.51,0,0,1,.39-3.29l-8.83-3.84-1.95,4.48,10.54,4.58A14.56,14.56,0,0,1,65.92,181.73Z" transform="translate(-49.18 -123.63)"/><path d="M69.27,196.15,87,200.74l.25-1L105,204.37l.33-1.28L87.6,198.51l.25-1-5.58-1.44a14.46,14.46,0,0,1-11.84-3.88l-17.84-4.61-1.22,4.73,17.71,4.58Z" transform="translate(-49.18 -123.63)"/></svg>